<svg width="179" height="16" viewBox="0 0 179 16" fill="none" xmlns="http://www.w3.org/2000/svg">
<path d="M9.82922 0.96V3.7H4.10922V6.66H8.38922V9.32H4.10922V15H0.689219V0.96H9.82922ZM15.0467 0.96V15H11.6267V0.96H15.0467ZM27.6252 0.96V3.7H23.9052V15H20.4852V3.7H16.7652V0.96H27.6252ZM41.9016 15H38.4816L32.7616 6.34V15H29.3416V0.96H32.7616L38.4816 9.66V0.96H41.9016V15ZM47.8006 3.7V6.54H52.3806V9.18H47.8006V12.26H52.9806V15H44.3806V0.96H52.9806V3.7H47.8006ZM60.2809 15.14C59.2543 15.14 58.3343 14.9733 57.5209 14.64C56.7076 14.3067 56.0543 13.8133 55.5609 13.16C55.0809 12.5067 54.8276 11.72 54.8009 10.8H58.4409C58.4943 11.32 58.6743 11.72 58.9809 12C59.2876 12.2667 59.6876 12.4 60.1809 12.4C60.6876 12.4 61.0876 12.2867 61.3809 12.06C61.6743 11.82 61.8209 11.4933 61.8209 11.08C61.8209 10.7333 61.7009 10.4467 61.4609 10.22C61.2343 9.99333 60.9476 9.80667 60.6009 9.66C60.2676 9.51333 59.7876 9.34667 59.1609 9.16C58.2543 8.88 57.5143 8.6 56.9409 8.32C56.3676 8.04 55.8743 7.62667 55.4609 7.08C55.0476 6.53333 54.8409 5.82 54.8409 4.94C54.8409 3.63333 55.3143 2.61333 56.2609 1.88C57.2076 1.13333 58.4409 0.76 59.9609 0.76C61.5076 0.76 62.7543 1.13333 63.7009 1.88C64.6476 2.61333 65.1543 3.64 65.2209 4.96H61.5209C61.4943 4.50667 61.3276 4.15333 61.0209 3.9C60.7143 3.63333 60.3209 3.5 59.8409 3.5C59.4276 3.5 59.0943 3.61333 58.8409 3.84C58.5876 4.05333 58.4609 4.36667 58.4609 4.78C58.4609 5.23333 58.6743 5.58667 59.1009 5.84C59.5276 6.09333 60.1943 6.36667 61.1009 6.66C62.0076 6.96667 62.7409 7.26 63.3009 7.54C63.8743 7.82 64.3676 8.22667 64.7809 8.76C65.1943 9.29333 65.4009 9.98 65.4009 10.82C65.4009 11.62 65.1943 12.3467 64.7809 13C64.3809 13.6533 63.7943 14.1733 63.0209 14.56C62.2476 14.9467 61.3343 15.14 60.2809 15.14ZM72.5856 15.14C71.559 15.14 70.639 14.9733 69.8256 14.64C69.0123 14.3067 68.359 13.8133 67.8656 13.16C67.3856 12.5067 67.1323 11.72 67.1056 10.8H70.7456C70.799 11.32 70.979 11.72 71.2856 12C71.5923 12.2667 71.9923 12.4 72.4856 12.4C72.9923 12.4 73.3923 12.2867 73.6856 12.06C73.979 11.82 74.1256 11.4933 74.1256 11.08C74.1256 10.7333 74.0056 10.4467 73.7656 10.22C73.539 9.99333 73.2523 9.80667 72.9056 9.66C72.5723 9.51333 72.0923 9.34667 71.4656 9.16C70.559 8.88 69.819 8.6 69.2456 8.32C68.6723 8.04 68.179 7.62667 67.7656 7.08C67.3523 6.53333 67.1456 5.82 67.1456 4.94C67.1456 3.63333 67.619 2.61333 68.5656 1.88C69.5123 1.13333 70.7456 0.76 72.2656 0.76C73.8123 0.76 75.059 1.13333 76.0056 1.88C76.9523 2.61333 77.459 3.64 77.5256 4.96H73.8256C73.799 4.50667 73.6323 4.15333 73.3256 3.9C73.019 3.63333 72.6256 3.5 72.1456 3.5C71.7323 3.5 71.399 3.61333 71.1456 3.84C70.8923 4.05333 70.7656 4.36667 70.7656 4.78C70.7656 5.23333 70.979 5.58667 71.4056 5.84C71.8323 6.09333 72.499 6.36667 73.4056 6.66C74.3123 6.96667 75.0456 7.26 75.6056 7.54C76.179 7.82 76.6723 8.22667 77.0856 8.76C77.499 9.29333 77.7056 9.98 77.7056 10.82C77.7056 11.62 77.499 12.3467 77.0856 13C76.6856 13.6533 76.099 14.1733 75.3256 14.56C74.5523 14.9467 73.639 15.14 72.5856 15.14ZM94.7486 5.48C94.7486 6.29333 94.5619 7.04 94.1886 7.72C93.8153 8.38667 93.2419 8.92667 92.4686 9.34C91.6953 9.75333 90.7353 9.96 89.5886 9.96H87.4686V15H84.0486V0.96H89.5886C90.7086 0.96 91.6553 1.15333 92.4286 1.54C93.2019 1.92667 93.7819 2.46 94.1686 3.14C94.5553 3.82 94.7486 4.6 94.7486 5.48ZM89.3286 7.24C89.9819 7.24 90.4686 7.08667 90.7886 6.78C91.1086 6.47333 91.2686 6.04 91.2686 5.48C91.2686 4.92 91.1086 4.48667 90.7886 4.18C90.4686 3.87333 89.9819 3.72 89.3286 3.72H87.4686V7.24H89.3286ZM99.9491 12.36H104.429V15H96.5291V0.96H99.9491V12.36ZM114.8 12.52H109.56L108.72 15H105.14L110.22 0.96H114.18L119.26 15H115.64L114.8 12.52ZM113.92 9.88L112.18 4.74L110.46 9.88H113.92ZM133.366 15H129.946L124.226 6.34V15H120.806V0.96H124.226L129.946 9.66V0.96H133.366V15ZM148.824 12.52H143.584L142.744 15H139.164L144.244 0.96H148.204L153.284 15H149.664L148.824 12.52ZM147.944 9.88L146.204 4.74L144.484 9.88H147.944ZM165.53 5.48C165.53 6.29333 165.343 7.04 164.97 7.72C164.597 8.38667 164.023 8.92667 163.25 9.34C162.477 9.75333 161.517 9.96 160.37 9.96H158.25V15H154.83V0.96H160.37C161.49 0.96 162.437 1.15333 163.21 1.54C163.983 1.92667 164.563 2.46 164.95 3.14C165.337 3.82 165.53 4.6 165.53 5.48ZM160.11 7.24C160.763 7.24 161.25 7.08667 161.57 6.78C161.89 6.47333 162.05 6.04 162.05 5.48C162.05 4.92 161.89 4.48667 161.57 4.18C161.25 3.87333 160.763 3.72 160.11 3.72H158.25V7.24H160.11ZM178.01 5.48C178.01 6.29333 177.824 7.04 177.45 7.72C177.077 8.38667 176.504 8.92667 175.73 9.34C174.957 9.75333 173.997 9.96 172.85 9.96H170.73V15H167.31V0.96H172.85C173.97 0.96 174.917 1.15333 175.69 1.54C176.464 1.92667 177.044 2.46 177.43 3.14C177.817 3.82 178.01 4.6 178.01 5.48ZM172.59 7.24C173.244 7.24 173.73 7.08667 174.05 6.78C174.37 6.47333 174.53 6.04 174.53 5.48C174.53 4.92 174.37 4.48667 174.05 4.18C173.73 3.87333 173.244 3.72 172.59 3.72H170.73V7.24H172.59Z" fill="black"/>
</svg>
