<svg width="328" height="45" viewBox="0 0 328 45" fill="none" xmlns="http://www.w3.org/2000/svg">
<path d="M2.856 34C2.66933 34 2.51067 33.9347 2.38 33.804C2.24933 33.6733 2.184 33.5147 2.184 33.328V15.1C2.184 14.8947 2.24 14.7267 2.352 14.596C2.48267 14.4653 2.65067 14.4 2.856 14.4H15.008C15.2133 14.4 15.3813 14.4653 15.512 14.596C15.6427 14.7267 15.708 14.8947 15.708 15.1V17.06C15.708 17.2653 15.6427 17.4333 15.512 17.564C15.3813 17.676 15.2133 17.732 15.008 17.732H6.02V23.052H14.448C14.6533 23.052 14.8213 23.1173 14.952 23.248C15.0827 23.3787 15.148 23.5467 15.148 23.752V25.712C15.148 25.9173 15.0827 26.0853 14.952 26.216C14.8213 26.328 14.6533 26.384 14.448 26.384H6.02V33.328C6.02 33.5333 5.95467 33.7013 5.824 33.832C5.69333 33.944 5.52533 34 5.32 34H2.856ZM18.7494 17.032C18.5627 17.032 18.4041 16.9667 18.2734 16.836C18.1427 16.7053 18.0774 16.5467 18.0774 16.36V14.344C18.0774 14.1573 18.1427 13.9987 18.2734 13.868C18.4041 13.7373 18.5627 13.672 18.7494 13.672H21.2974C21.4841 13.672 21.6427 13.7373 21.7734 13.868C21.9227 13.9987 21.9974 14.1573 21.9974 14.344V16.36C21.9974 16.5467 21.9321 16.7053 21.8014 16.836C21.6707 16.9667 21.5027 17.032 21.2974 17.032H18.7494ZM18.8614 34C18.6747 34 18.5161 33.9347 18.3854 33.804C18.2547 33.6733 18.1894 33.5147 18.1894 33.328V20.112C18.1894 19.9253 18.2547 19.7667 18.3854 19.636C18.5161 19.5053 18.6747 19.44 18.8614 19.44H21.1854C21.3907 19.44 21.5494 19.5053 21.6614 19.636C21.7921 19.748 21.8574 19.9067 21.8574 20.112V33.328C21.8574 33.5147 21.7921 33.6733 21.6614 33.804C21.5494 33.9347 21.3907 34 21.1854 34H18.8614ZM31.6772 34C29.9786 34 28.6999 33.5613 27.8412 32.684C27.0012 31.788 26.5812 30.4813 26.5812 28.764V22.408H24.3692C24.1826 22.408 24.0239 22.3427 23.8932 22.212C23.7626 22.0627 23.6972 21.8947 23.6972 21.708V20.112C23.6972 19.9253 23.7626 19.7667 23.8932 19.636C24.0239 19.5053 24.1826 19.44 24.3692 19.44H26.5812V14.792C26.5812 14.5867 26.6466 14.428 26.7772 14.316C26.9079 14.1853 27.0666 14.12 27.2532 14.12H29.5212C29.7266 14.12 29.8852 14.1853 29.9972 14.316C30.1279 14.428 30.1932 14.5867 30.1932 14.792V19.44H33.6932C33.8986 19.44 34.0572 19.5053 34.1692 19.636C34.2999 19.748 34.3652 19.9067 34.3652 20.112V21.708C34.3652 21.9133 34.2999 22.0813 34.1692 22.212C34.0386 22.3427 33.8799 22.408 33.6932 22.408H30.1932V28.484C30.1932 29.2867 30.3332 29.8933 30.6132 30.304C30.8932 30.7147 31.3599 30.92 32.0132 30.92H33.9452C34.1319 30.92 34.2906 30.9853 34.4212 31.116C34.5519 31.2467 34.6172 31.4053 34.6172 31.592V33.328C34.6172 33.5147 34.5519 33.6733 34.4212 33.804C34.3092 33.9347 34.1506 34 33.9452 34H31.6772ZM37.2981 34C37.1115 34 36.9528 33.9347 36.8221 33.804C36.6915 33.6733 36.6261 33.5147 36.6261 33.328V20.112C36.6261 19.9253 36.6915 19.7667 36.8221 19.636C36.9528 19.5053 37.1115 19.44 37.2981 19.44H39.5941C39.7808 19.44 39.9395 19.5053 40.0701 19.636C40.2008 19.7667 40.2661 19.9253 40.2661 20.112V21.26C41.3675 19.86 42.9261 19.16 44.9421 19.16C46.6595 19.16 48.0221 19.7293 49.0301 20.868C50.0381 21.988 50.5421 23.5187 50.5421 25.46V33.328C50.5421 33.5147 50.4768 33.6733 50.3461 33.804C50.2341 33.9347 50.0755 34 49.8701 34H47.4061C47.2195 34 47.0608 33.9347 46.9301 33.804C46.7995 33.6733 46.7341 33.5147 46.7341 33.328V25.628C46.7341 24.5267 46.4635 23.6773 45.9221 23.08C45.3995 22.464 44.6341 22.156 43.6261 22.156C42.6368 22.156 41.8528 22.464 41.2741 23.08C40.7141 23.696 40.4341 24.5453 40.4341 25.628V33.328C40.4341 33.5147 40.3688 33.6733 40.2381 33.804C40.1261 33.9347 39.9675 34 39.7621 34H37.2981ZM59.8958 34.28C57.8238 34.28 56.1718 33.6827 54.9398 32.488C53.7264 31.2747 53.0824 29.576 53.0078 27.392L52.9798 26.692L53.0078 25.992C53.1011 23.864 53.7544 22.1933 54.9678 20.98C56.1998 19.7667 57.8424 19.16 59.8958 19.16C62.0984 19.16 63.7971 19.832 64.9918 21.176C66.2051 22.52 66.8118 24.312 66.8118 26.552V27.14C66.8118 27.3267 66.7464 27.4853 66.6158 27.616C66.4851 27.7467 66.3171 27.812 66.1118 27.812H56.8158V28.036C56.8531 29.0627 57.1331 29.9307 57.6558 30.64C58.1971 31.3307 58.9344 31.676 59.8678 31.676C60.9691 31.676 61.8558 31.2467 62.5278 30.388C62.6958 30.1827 62.8264 30.052 62.9198 29.996C63.0318 29.94 63.1904 29.912 63.3958 29.912H65.8038C65.9718 29.912 66.1118 29.968 66.2238 30.08C66.3544 30.1733 66.4198 30.2947 66.4198 30.444C66.4198 30.892 66.1491 31.424 65.6078 32.04C65.0851 32.6373 64.3291 33.16 63.3398 33.608C62.3504 34.056 61.2024 34.28 59.8958 34.28ZM63.0038 25.46V25.376C63.0038 24.2747 62.7238 23.388 62.1638 22.716C61.6224 22.044 60.8664 21.708 59.8958 21.708C58.9251 21.708 58.1691 22.044 57.6278 22.716C57.0864 23.388 56.8158 24.2747 56.8158 25.376V25.46H63.0038ZM74.8249 34.28C73.4249 34.28 72.2489 34.0747 71.2969 33.664C70.3449 33.2347 69.6356 32.74 69.1689 32.18C68.7209 31.6013 68.4969 31.1067 68.4969 30.696C68.4969 30.5093 68.5623 30.36 68.6929 30.248C68.8236 30.136 68.9729 30.08 69.1409 30.08H71.3529C71.5209 30.08 71.6609 30.1453 71.7729 30.276C71.8476 30.332 72.0436 30.5 72.3609 30.78C72.6783 31.0787 73.0516 31.312 73.4809 31.48C73.9103 31.648 74.3863 31.732 74.9089 31.732C75.6556 31.732 76.2716 31.5827 76.7569 31.284C77.2423 30.9853 77.4849 30.5747 77.4849 30.052C77.4849 29.66 77.3729 29.3427 77.1489 29.1C76.9436 28.8573 76.5609 28.6427 76.0009 28.456C75.4409 28.2507 74.6103 28.036 73.5089 27.812C71.9223 27.476 70.7463 26.9627 69.9809 26.272C69.2343 25.5813 68.8609 24.6667 68.8609 23.528C68.8609 22.7813 69.0849 22.0813 69.5329 21.428C69.9809 20.756 70.6436 20.2147 71.5209 19.804C72.4169 19.3747 73.4809 19.16 74.7129 19.16C75.9636 19.16 77.0463 19.3653 77.9609 19.776C78.8756 20.168 79.5663 20.644 80.0329 21.204C80.5183 21.7453 80.7609 22.2307 80.7609 22.66C80.7609 22.828 80.6956 22.9773 80.5649 23.108C80.4529 23.22 80.3129 23.276 80.1449 23.276H78.0729C77.9236 23.276 77.7649 23.2107 77.5969 23.08C77.4663 22.9867 77.2609 22.8093 76.9809 22.548C76.7009 22.2867 76.3743 22.0813 76.0009 21.932C75.6276 21.7827 75.1889 21.708 74.6849 21.708C73.9943 21.708 73.4529 21.8573 73.0609 22.156C72.6876 22.4547 72.5009 22.8467 72.5009 23.332C72.5009 23.6867 72.5943 23.976 72.7809 24.2C72.9676 24.424 73.3316 24.6387 73.8729 24.844C74.4143 25.0493 75.2263 25.2547 76.3089 25.46C78.1009 25.8147 79.3796 26.3653 80.1449 27.112C80.9289 27.8587 81.3209 28.7733 81.3209 29.856C81.3209 31.1627 80.7516 32.2267 79.6129 33.048C78.4743 33.8693 76.8783 34.28 74.8249 34.28ZM89.2523 34.28C87.8523 34.28 86.6763 34.0747 85.7243 33.664C84.7723 33.2347 84.0629 32.74 83.5963 32.18C83.1483 31.6013 82.9243 31.1067 82.9243 30.696C82.9243 30.5093 82.9896 30.36 83.1203 30.248C83.2509 30.136 83.4003 30.08 83.5683 30.08H85.7803C85.9483 30.08 86.0883 30.1453 86.2003 30.276C86.2749 30.332 86.4709 30.5 86.7883 30.78C87.1056 31.0787 87.4789 31.312 87.9083 31.48C88.3376 31.648 88.8136 31.732 89.3363 31.732C90.0829 31.732 90.699 31.5827 91.1843 31.284C91.6696 30.9853 91.9123 30.5747 91.9123 30.052C91.9123 29.66 91.8003 29.3427 91.5763 29.1C91.3709 28.8573 90.9883 28.6427 90.4283 28.456C89.8683 28.2507 89.0376 28.036 87.9363 27.812C86.3496 27.476 85.1736 26.9627 84.4083 26.272C83.6616 25.5813 83.2883 24.6667 83.2883 23.528C83.2883 22.7813 83.5123 22.0813 83.9603 21.428C84.4083 20.756 85.0709 20.2147 85.9483 19.804C86.8443 19.3747 87.9083 19.16 89.1403 19.16C90.3909 19.16 91.4736 19.3653 92.3883 19.776C93.303 20.168 93.9936 20.644 94.4603 21.204C94.9456 21.7453 95.1883 22.2307 95.1883 22.66C95.1883 22.828 95.123 22.9773 94.9923 23.108C94.8803 23.22 94.7403 23.276 94.5723 23.276H92.5003C92.3509 23.276 92.1923 23.2107 92.0243 23.08C91.8936 22.9867 91.6883 22.8093 91.4083 22.548C91.1283 22.2867 90.8016 22.0813 90.4283 21.932C90.0549 21.7827 89.6163 21.708 89.1123 21.708C88.4216 21.708 87.8803 21.8573 87.4883 22.156C87.1149 22.4547 86.9283 22.8467 86.9283 23.332C86.9283 23.6867 87.0216 23.976 87.2083 24.2C87.3949 24.424 87.7589 24.6387 88.3003 24.844C88.8416 25.0493 89.6536 25.2547 90.7363 25.46C92.5283 25.8147 93.807 26.3653 94.5723 27.112C95.3563 27.8587 95.7483 28.7733 95.7483 29.856C95.7483 31.1627 95.179 32.2267 94.0403 33.048C92.9016 33.8693 91.3056 34.28 89.2523 34.28ZM161.793 34C161.588 34 161.42 33.944 161.289 33.832C161.159 33.7013 161.093 33.5333 161.093 33.328V15.1C161.093 14.8947 161.159 14.7267 161.289 14.596C161.42 14.4653 161.588 14.4 161.793 14.4H164.005C164.397 14.4 164.677 14.5773 164.845 14.932L170.249 25.012L175.709 14.932C175.896 14.5773 176.176 14.4 176.549 14.4H178.733C178.939 14.4 179.107 14.4653 179.237 14.596C179.368 14.7267 179.433 14.8947 179.433 15.1V33.328C179.433 33.5333 179.368 33.7013 179.237 33.832C179.107 33.944 178.939 34 178.733 34H176.381C176.195 34 176.036 33.9347 175.905 33.804C175.775 33.6733 175.709 33.5147 175.709 33.328V21.204L171.789 28.68C171.547 29.0907 171.229 29.296 170.837 29.296H169.689C169.297 29.296 168.98 29.0907 168.737 28.68L164.817 21.204V33.328C164.817 33.5147 164.752 33.6733 164.621 33.804C164.509 33.9347 164.351 34 164.145 34H161.793ZM189.25 34.28C187.178 34.28 185.526 33.6827 184.294 32.488C183.08 31.2747 182.436 29.576 182.362 27.392L182.334 26.692L182.362 25.992C182.455 23.864 183.108 22.1933 184.322 20.98C185.554 19.7667 187.196 19.16 189.25 19.16C191.452 19.16 193.151 19.832 194.346 21.176C195.559 22.52 196.166 24.312 196.166 26.552V27.14C196.166 27.3267 196.1 27.4853 195.97 27.616C195.839 27.7467 195.671 27.812 195.466 27.812H186.17V28.036C186.207 29.0627 186.487 29.9307 187.01 30.64C187.551 31.3307 188.288 31.676 189.222 31.676C190.323 31.676 191.21 31.2467 191.882 30.388C192.05 30.1827 192.18 30.052 192.274 29.996C192.386 29.94 192.544 29.912 192.75 29.912H195.158C195.326 29.912 195.466 29.968 195.578 30.08C195.708 30.1733 195.774 30.2947 195.774 30.444C195.774 30.892 195.503 31.424 194.962 32.04C194.439 32.6373 193.683 33.16 192.694 33.608C191.704 34.056 190.556 34.28 189.25 34.28ZM192.358 25.46V25.376C192.358 24.2747 192.078 23.388 191.518 22.716C190.976 22.044 190.22 21.708 189.25 21.708C188.279 21.708 187.523 22.044 186.982 22.716C186.44 23.388 186.17 24.2747 186.17 25.376V25.46H192.358ZM202.891 34.28C201.939 34.28 201.062 34.0933 200.259 33.72C199.475 33.328 198.85 32.8053 198.383 32.152C197.935 31.4987 197.711 30.78 197.711 29.996C197.711 28.7267 198.224 27.7 199.251 26.916C200.278 26.132 201.687 25.6 203.479 25.32L207.315 24.76V24.172C207.315 23.3507 207.11 22.7347 206.699 22.324C206.288 21.9133 205.626 21.708 204.711 21.708C204.095 21.708 203.591 21.8293 203.199 22.072C202.826 22.296 202.527 22.52 202.303 22.744C202.079 22.9867 201.93 23.1453 201.855 23.22C201.78 23.444 201.64 23.556 201.435 23.556H199.279C199.111 23.556 198.962 23.5 198.831 23.388C198.719 23.276 198.663 23.1267 198.663 22.94C198.682 22.4733 198.906 21.9413 199.335 21.344C199.783 20.7467 200.464 20.2333 201.379 19.804C202.294 19.3747 203.414 19.16 204.739 19.16C206.942 19.16 208.547 19.6547 209.555 20.644C210.563 21.6333 211.067 22.9307 211.067 24.536V33.328C211.067 33.5147 211.002 33.6733 210.871 33.804C210.759 33.9347 210.6 34 210.395 34H208.127C207.94 34 207.782 33.9347 207.651 33.804C207.52 33.6733 207.455 33.5147 207.455 33.328V32.236C207.044 32.8333 206.456 33.328 205.691 33.72C204.944 34.0933 204.011 34.28 202.891 34.28ZM203.843 31.62C204.87 31.62 205.71 31.284 206.363 30.612C207.016 29.94 207.343 28.96 207.343 27.672V27.084L204.543 27.532C203.46 27.7 202.639 27.9707 202.079 28.344C201.538 28.7173 201.267 29.1747 201.267 29.716C201.267 30.3133 201.519 30.78 202.023 31.116C202.527 31.452 203.134 31.62 203.843 31.62ZM214.884 34C214.697 34 214.539 33.9347 214.408 33.804C214.277 33.6733 214.212 33.5147 214.212 33.328V14.792C214.212 14.5867 214.277 14.428 214.408 14.316C214.539 14.1853 214.697 14.12 214.884 14.12H217.208C217.413 14.12 217.572 14.1853 217.684 14.316C217.815 14.428 217.88 14.5867 217.88 14.792V33.328C217.88 33.5147 217.815 33.6733 217.684 33.804C217.572 33.9347 217.413 34 217.208 34H214.884ZM228.051 34C227.864 34 227.705 33.9347 227.575 33.804C227.444 33.6733 227.379 33.5147 227.379 33.328V15.1C227.379 14.8947 227.435 14.7267 227.547 14.596C227.677 14.4653 227.845 14.4 228.051 14.4H235.555C237.795 14.4 239.559 14.932 240.847 15.996C242.135 17.0413 242.779 18.5813 242.779 20.616C242.779 22.6507 242.135 24.1907 240.847 25.236C239.577 26.2627 237.813 26.776 235.555 26.776H231.383V33.328C231.383 33.5147 231.317 33.6733 231.187 33.804C231.075 33.9347 230.916 34 230.711 34H228.051ZM235.415 23.668C236.497 23.668 237.328 23.416 237.907 22.912C238.485 22.3893 238.775 21.624 238.775 20.616C238.775 19.6453 238.495 18.8893 237.935 18.348C237.375 17.788 236.535 17.508 235.415 17.508H231.327V23.668H235.415ZM245.725 34C245.538 34 245.379 33.9347 245.249 33.804C245.118 33.6733 245.053 33.5147 245.053 33.328V14.792C245.053 14.5867 245.118 14.428 245.249 14.316C245.379 14.1853 245.538 14.12 245.725 14.12H248.049C248.254 14.12 248.413 14.1853 248.525 14.316C248.655 14.428 248.721 14.5867 248.721 14.792V33.328C248.721 33.5147 248.655 33.6733 248.525 33.804C248.413 33.9347 248.254 34 248.049 34H245.725ZM256.188 34.28C255.236 34.28 254.358 34.0933 253.556 33.72C252.772 33.328 252.146 32.8053 251.68 32.152C251.232 31.4987 251.008 30.78 251.008 29.996C251.008 28.7267 251.521 27.7 252.548 26.916C253.574 26.132 254.984 25.6 256.776 25.32L260.612 24.76V24.172C260.612 23.3507 260.406 22.7347 259.996 22.324C259.585 21.9133 258.922 21.708 258.008 21.708C257.392 21.708 256.888 21.8293 256.496 22.072C256.122 22.296 255.824 22.52 255.6 22.744C255.376 22.9867 255.226 23.1453 255.152 23.22C255.077 23.444 254.937 23.556 254.732 23.556H252.576C252.408 23.556 252.258 23.5 252.128 23.388C252.016 23.276 251.96 23.1267 251.96 22.94C251.978 22.4733 252.202 21.9413 252.632 21.344C253.08 20.7467 253.761 20.2333 254.676 19.804C255.59 19.3747 256.71 19.16 258.036 19.16C260.238 19.16 261.844 19.6547 262.852 20.644C263.86 21.6333 264.364 22.9307 264.364 24.536V33.328C264.364 33.5147 264.298 33.6733 264.168 33.804C264.056 33.9347 263.897 34 263.692 34H261.424C261.237 34 261.078 33.9347 260.948 33.804C260.817 33.6733 260.752 33.5147 260.752 33.328V32.236C260.341 32.8333 259.753 33.328 258.988 33.72C258.241 34.0933 257.308 34.28 256.188 34.28ZM257.14 31.62C258.166 31.62 259.006 31.284 259.66 30.612C260.313 29.94 260.64 28.96 260.64 27.672V27.084L257.84 27.532C256.757 27.7 255.936 27.9707 255.376 28.344C254.834 28.7173 254.564 29.1747 254.564 29.716C254.564 30.3133 254.816 30.78 255.32 31.116C255.824 31.452 256.43 31.62 257.14 31.62ZM268.153 34C267.966 34 267.807 33.9347 267.677 33.804C267.546 33.6733 267.481 33.5147 267.481 33.328V20.112C267.481 19.9253 267.546 19.7667 267.677 19.636C267.807 19.5053 267.966 19.44 268.153 19.44H270.449C270.635 19.44 270.794 19.5053 270.925 19.636C271.055 19.7667 271.121 19.9253 271.121 20.112V21.26C272.222 19.86 273.781 19.16 275.797 19.16C277.514 19.16 278.877 19.7293 279.885 20.868C280.893 21.988 281.397 23.5187 281.397 25.46V33.328C281.397 33.5147 281.331 33.6733 281.201 33.804C281.089 33.9347 280.93 34 280.725 34H278.261C278.074 34 277.915 33.9347 277.785 33.804C277.654 33.6733 277.589 33.5147 277.589 33.328V25.628C277.589 24.5267 277.318 23.6773 276.777 23.08C276.254 22.464 275.489 22.156 274.481 22.156C273.491 22.156 272.707 22.464 272.129 23.08C271.569 23.696 271.289 24.5453 271.289 25.628V33.328C271.289 33.5147 271.223 33.6733 271.093 33.804C270.981 33.9347 270.822 34 270.617 34H268.153ZM285.15 34C284.964 34 284.805 33.9347 284.674 33.804C284.544 33.6733 284.478 33.5147 284.478 33.328V20.112C284.478 19.9253 284.544 19.7667 284.674 19.636C284.805 19.5053 284.964 19.44 285.15 19.44H287.446C287.633 19.44 287.792 19.5053 287.922 19.636C288.053 19.7667 288.118 19.9253 288.118 20.112V21.26C289.22 19.86 290.778 19.16 292.794 19.16C294.512 19.16 295.874 19.7293 296.882 20.868C297.89 21.988 298.394 23.5187 298.394 25.46V33.328C298.394 33.5147 298.329 33.6733 298.198 33.804C298.086 33.9347 297.928 34 297.722 34H295.258C295.072 34 294.913 33.9347 294.782 33.804C294.652 33.6733 294.586 33.5147 294.586 33.328V25.628C294.586 24.5267 294.316 23.6773 293.774 23.08C293.252 22.464 292.486 22.156 291.478 22.156C290.489 22.156 289.705 22.464 289.126 23.08C288.566 23.696 288.286 24.5453 288.286 25.628V33.328C288.286 33.5147 288.221 33.6733 288.09 33.804C287.978 33.9347 287.82 34 287.614 34H285.15ZM307.748 34.28C305.676 34.28 304.024 33.6827 302.792 32.488C301.579 31.2747 300.935 29.576 300.86 27.392L300.832 26.692L300.86 25.992C300.953 23.864 301.607 22.1933 302.82 20.98C304.052 19.7667 305.695 19.16 307.748 19.16C309.951 19.16 311.649 19.832 312.844 21.176C314.057 22.52 314.664 24.312 314.664 26.552V27.14C314.664 27.3267 314.599 27.4853 314.468 27.616C314.337 27.7467 314.169 27.812 313.964 27.812H304.668V28.036C304.705 29.0627 304.985 29.9307 305.508 30.64C306.049 31.3307 306.787 31.676 307.72 31.676C308.821 31.676 309.708 31.2467 310.38 30.388C310.548 30.1827 310.679 30.052 310.772 29.996C310.884 29.94 311.043 29.912 311.248 29.912H313.656C313.824 29.912 313.964 29.968 314.076 30.08C314.207 30.1733 314.272 30.2947 314.272 30.444C314.272 30.892 314.001 31.424 313.46 32.04C312.937 32.6373 312.181 33.16 311.192 33.608C310.203 34.056 309.055 34.28 307.748 34.28ZM310.856 25.46V25.376C310.856 24.2747 310.576 23.388 310.016 22.716C309.475 22.044 308.719 21.708 307.748 21.708C306.777 21.708 306.021 22.044 305.48 22.716C304.939 23.388 304.668 24.2747 304.668 25.376V25.46H310.856ZM317.833 34C317.647 34 317.488 33.9347 317.357 33.804C317.227 33.6733 317.161 33.5147 317.161 33.328V20.14C317.161 19.9533 317.227 19.7947 317.357 19.664C317.488 19.5147 317.647 19.44 317.833 19.44H320.101C320.307 19.44 320.475 19.5053 320.605 19.636C320.736 19.7667 320.801 19.9347 320.801 20.14V21.288C321.249 20.6907 321.809 20.2333 322.481 19.916C323.172 19.5987 323.956 19.44 324.833 19.44H325.981C326.187 19.44 326.345 19.5053 326.457 19.636C326.588 19.748 326.653 19.9067 326.653 20.112V22.128C326.653 22.3147 326.588 22.4733 326.457 22.604C326.345 22.7347 326.187 22.8 325.981 22.8H323.797C322.92 22.8 322.229 23.052 321.725 23.556C321.221 24.06 320.969 24.7507 320.969 25.628V33.328C320.969 33.5147 320.904 33.6733 320.773 33.804C320.643 33.9347 320.475 34 320.269 34H317.833Z" fill="#191B20"/>
<path d="M108.259 34.28C107.27 34.28 106.364 34.0933 105.543 33.72C104.74 33.328 104.106 32.8053 103.639 32.152C103.191 31.48 102.967 30.7427 102.967 29.94C102.967 28.652 103.49 27.616 104.535 26.832C105.599 26.048 107.055 25.5067 108.903 25.208L112.403 24.676V24.284C112.403 23.5747 112.254 23.052 111.955 22.716C111.656 22.38 111.152 22.212 110.443 22.212C110.014 22.212 109.659 22.2867 109.379 22.436C109.099 22.5853 108.81 22.7907 108.511 23.052C108.25 23.276 108.054 23.4253 107.923 23.5C107.867 23.6493 107.764 23.724 107.615 23.724H104.563C104.376 23.724 104.218 23.668 104.087 23.556C103.975 23.4253 103.928 23.276 103.947 23.108C103.966 22.604 104.208 22.044 104.675 21.428C105.16 20.812 105.888 20.28 106.859 19.832C107.848 19.384 109.062 19.16 110.499 19.16C112.795 19.16 114.494 19.6733 115.595 20.7C116.696 21.708 117.247 23.0707 117.247 24.788V33.3C117.247 33.4867 117.182 33.6547 117.051 33.804C116.92 33.9347 116.752 34 116.547 34H113.299C113.112 34 112.944 33.9347 112.795 33.804C112.664 33.6547 112.599 33.4867 112.599 33.3V32.32C112.188 32.8987 111.61 33.3747 110.863 33.748C110.135 34.1027 109.267 34.28 108.259 34.28ZM109.575 31.088C110.434 31.088 111.124 30.808 111.647 30.248C112.188 29.688 112.459 28.8667 112.459 27.784V27.392L110.079 27.812C108.399 28.1107 107.559 28.6987 107.559 29.576C107.559 30.0427 107.755 30.416 108.147 30.696C108.539 30.9573 109.015 31.088 109.575 31.088ZM120.632 34C120.426 34 120.258 33.9347 120.128 33.804C119.997 33.6733 119.932 33.5053 119.932 33.3V20.14C119.932 19.9347 119.997 19.7667 120.128 19.636C120.258 19.5053 120.426 19.44 120.632 19.44H123.852C124.057 19.44 124.225 19.5053 124.356 19.636C124.505 19.7667 124.58 19.9347 124.58 20.14V21.204C125.084 20.588 125.728 20.0933 126.512 19.72C127.314 19.3467 128.22 19.16 129.228 19.16C130.87 19.16 132.205 19.72 133.232 20.84C134.258 21.9413 134.772 23.4907 134.772 25.488V33.3C134.772 33.4867 134.706 33.6547 134.576 33.804C134.445 33.9347 134.277 34 134.072 34H130.544C130.357 34 130.189 33.9347 130.04 33.804C129.909 33.6547 129.844 33.4867 129.844 33.3V25.656C129.844 24.7787 129.629 24.1067 129.2 23.64C128.77 23.1547 128.154 22.912 127.352 22.912C126.568 22.912 125.952 23.1547 125.504 23.64C125.056 24.1067 124.832 24.7787 124.832 25.656V33.3C124.832 33.4867 124.766 33.6547 124.636 33.804C124.505 33.9347 124.337 34 124.132 34H120.632ZM142.881 34.28C141.052 34.28 139.624 33.7107 138.597 32.572C137.589 31.4147 137.038 29.7907 136.945 27.7L136.917 26.72L136.945 25.712C137.02 23.696 137.57 22.1 138.597 20.924C139.642 19.748 141.07 19.16 142.881 19.16C144.58 19.16 145.952 19.7107 146.997 20.812V14.82C146.997 14.6147 147.062 14.4467 147.193 14.316C147.324 14.1853 147.492 14.12 147.697 14.12H151.113C151.318 14.12 151.486 14.1853 151.617 14.316C151.748 14.4467 151.813 14.6147 151.813 14.82V33.3C151.813 33.4867 151.748 33.6547 151.617 33.804C151.486 33.9347 151.318 34 151.113 34H147.949C147.762 34 147.594 33.9347 147.445 33.804C147.314 33.6547 147.249 33.4867 147.249 33.3V32.404C146.222 33.6547 144.766 34.28 142.881 34.28ZM144.421 30.528C145.261 30.528 145.886 30.2667 146.297 29.744C146.708 29.2027 146.941 28.512 146.997 27.672C147.016 27.4293 147.025 27.0747 147.025 26.608C147.025 26.16 147.016 25.8147 146.997 25.572C146.96 24.8067 146.726 24.172 146.297 23.668C145.868 23.164 145.242 22.912 144.421 22.912C143.544 22.912 142.909 23.1733 142.517 23.696C142.144 24.2187 141.929 24.9373 141.873 25.852C141.854 26.0387 141.845 26.328 141.845 26.72C141.845 27.112 141.854 27.4013 141.873 27.588C141.929 28.5027 142.144 29.2213 142.517 29.744C142.909 30.2667 143.544 30.528 144.421 30.528Z" fill="#EE6B2D"/>
</svg>