<svg width="322" height="23" viewBox="0 0 322 23" fill="none" xmlns="http://www.w3.org/2000/svg">
<path d="M4.56786 11.605H13.6399V15.115H4.56786V11.605ZM4.89186 22H0.517856V3.1H14.8009V6.61H4.89186V22ZM17.465 22V7.474H21.677V22H17.465ZM19.571 5.449C18.797 5.449 18.167 5.224 17.681 4.774C17.195 4.324 16.952 3.766 16.952 3.1C16.952 2.434 17.195 1.876 17.681 1.426C18.167 0.975999 18.797 0.750998 19.571 0.750998C20.345 0.750998 20.975 0.966999 21.461 1.399C21.947 1.813 22.19 2.353 22.19 3.019C22.19 3.721 21.947 4.306 21.461 4.774C20.993 5.224 20.363 5.449 19.571 5.449ZM31.5261 22.216C29.8161 22.216 28.4841 21.784 27.5301 20.92C26.5761 20.038 26.0991 18.733 26.0991 17.005V4.261H30.3111V16.951C30.3111 17.563 30.4731 18.04 30.7971 18.382C31.1211 18.706 31.5621 18.868 32.1201 18.868C32.7861 18.868 33.3531 18.688 33.8211 18.328L34.9551 21.298C34.5231 21.604 34.0011 21.838 33.3891 22C32.7951 22.144 32.1741 22.216 31.5261 22.216ZM23.8581 11.038V7.798H33.9291V11.038H23.8581ZM46.1485 7.258C47.3005 7.258 48.3265 7.492 49.2265 7.96C50.1445 8.41 50.8645 9.112 51.3865 10.066C51.9085 11.002 52.1695 12.208 52.1695 13.684V22H47.9575V14.332C47.9575 13.162 47.6965 12.298 47.1745 11.74C46.6705 11.182 45.9505 10.903 45.0145 10.903C44.3485 10.903 43.7455 11.047 43.2055 11.335C42.6835 11.605 42.2695 12.028 41.9635 12.604C41.6755 13.18 41.5315 13.918 41.5315 14.818V22H37.3195V7.474H41.3425V11.497L40.5865 10.282C41.1085 9.31 41.8555 8.563 42.8275 8.041C43.7995 7.519 44.9065 7.258 46.1485 7.258ZM63.3019 22.216C61.6459 22.216 60.1879 21.892 58.9279 21.244C57.6859 20.596 56.7229 19.714 56.0389 18.598C55.3549 17.464 55.0129 16.177 55.0129 14.737C55.0129 13.279 55.3459 11.992 56.0119 10.876C56.6959 9.742 57.6229 8.86 58.7929 8.23C59.9629 7.582 61.2859 7.258 62.7619 7.258C64.1839 7.258 65.4619 7.564 66.5959 8.176C67.7479 8.77 68.6569 9.634 69.3229 10.768C69.9889 11.884 70.3219 13.225 70.3219 14.791C70.3219 14.953 70.3129 15.142 70.2949 15.358C70.2769 15.556 70.2589 15.745 70.2409 15.925H58.4419V13.468H68.0269L66.4069 14.197C66.4069 13.441 66.2539 12.784 65.9479 12.226C65.6419 11.668 65.2189 11.236 64.6789 10.93C64.1389 10.606 63.5089 10.444 62.7889 10.444C62.0689 10.444 61.4299 10.606 60.8719 10.93C60.3319 11.236 59.9089 11.677 59.6029 12.253C59.2969 12.811 59.1439 13.477 59.1439 14.251V14.899C59.1439 15.691 59.3149 16.393 59.6569 17.005C60.0169 17.599 60.5119 18.058 61.1419 18.382C61.7899 18.688 62.5459 18.841 63.4099 18.841C64.1839 18.841 64.8589 18.724 65.4349 18.49C66.0289 18.256 66.5689 17.905 67.0549 17.437L69.2959 19.867C68.6299 20.623 67.7929 21.208 66.7849 21.622C65.7769 22.018 64.6159 22.216 63.3019 22.216ZM78.0131 22.216C76.7711 22.216 75.5741 22.072 74.4221 21.784C73.2881 21.478 72.3881 21.1 71.7221 20.65L73.1261 17.626C73.7921 18.04 74.5751 18.382 75.4751 18.652C76.3931 18.904 77.2931 19.03 78.1751 19.03C79.1471 19.03 79.8311 18.913 80.2271 18.679C80.6411 18.445 80.8481 18.121 80.8481 17.707C80.8481 17.365 80.6861 17.113 80.3621 16.951C80.0561 16.771 79.6421 16.636 79.1201 16.546C78.5981 16.456 78.0221 16.366 77.3921 16.276C76.7801 16.186 76.1591 16.069 75.5291 15.925C74.8991 15.763 74.3231 15.529 73.8011 15.223C73.2791 14.917 72.8561 14.503 72.5321 13.981C72.2261 13.459 72.0731 12.784 72.0731 11.956C72.0731 11.038 72.3341 10.228 72.8561 9.526C73.3961 8.824 74.1701 8.275 75.1781 7.879C76.1861 7.465 77.3921 7.258 78.7961 7.258C79.7861 7.258 80.7941 7.366 81.8201 7.582C82.8461 7.798 83.7011 8.113 84.3851 8.527L82.9811 11.524C82.2791 11.11 81.5681 10.831 80.8481 10.687C80.1461 10.525 79.4621 10.444 78.7961 10.444C77.8601 10.444 77.1761 10.57 76.7441 10.822C76.3121 11.074 76.0961 11.398 76.0961 11.794C76.0961 12.154 76.2491 12.424 76.5551 12.604C76.8791 12.784 77.3021 12.928 77.8241 13.036C78.3461 13.144 78.9131 13.243 79.5251 13.333C80.1551 13.405 80.7851 13.522 81.4151 13.684C82.0451 13.846 82.6121 14.08 83.1161 14.386C83.6381 14.674 84.0611 15.079 84.3851 15.601C84.7091 16.105 84.8711 16.771 84.8711 17.599C84.8711 18.499 84.6011 19.3 84.0611 20.002C83.5211 20.686 82.7381 21.226 81.7121 21.622C80.7041 22.018 79.4711 22.216 78.0131 22.216ZM92.3569 22.216C91.1149 22.216 89.9179 22.072 88.7659 21.784C87.6319 21.478 86.7319 21.1 86.0659 20.65L87.4699 17.626C88.1359 18.04 88.9189 18.382 89.8189 18.652C90.7369 18.904 91.6369 19.03 92.5189 19.03C93.4909 19.03 94.1749 18.913 94.5709 18.679C94.9849 18.445 95.1919 18.121 95.1919 17.707C95.1919 17.365 95.0299 17.113 94.7059 16.951C94.3999 16.771 93.9859 16.636 93.4639 16.546C92.9419 16.456 92.3659 16.366 91.7359 16.276C91.1239 16.186 90.5029 16.069 89.8729 15.925C89.2429 15.763 88.6669 15.529 88.1449 15.223C87.6229 14.917 87.1999 14.503 86.8759 13.981C86.5699 13.459 86.4169 12.784 86.4169 11.956C86.4169 11.038 86.6779 10.228 87.1999 9.526C87.7399 8.824 88.5139 8.275 89.5219 7.879C90.5299 7.465 91.7359 7.258 93.1399 7.258C94.1299 7.258 95.1379 7.366 96.1639 7.582C97.1899 7.798 98.0449 8.113 98.7289 8.527L97.3249 11.524C96.6229 11.11 95.9119 10.831 95.1919 10.687C94.4899 10.525 93.8059 10.444 93.1399 10.444C92.2039 10.444 91.5199 10.57 91.0879 10.822C90.6559 11.074 90.4399 11.398 90.4399 11.794C90.4399 12.154 90.5929 12.424 90.8989 12.604C91.2229 12.784 91.6459 12.928 92.1679 13.036C92.6899 13.144 93.2569 13.243 93.8689 13.333C94.4989 13.405 95.1289 13.522 95.7589 13.684C96.3889 13.846 96.9559 14.08 97.4599 14.386C97.9819 14.674 98.4049 15.079 98.7289 15.601C99.0529 16.105 99.2149 16.771 99.2149 17.599C99.2149 18.499 98.9449 19.3 98.4049 20.002C97.8649 20.686 97.0819 21.226 96.0559 21.622C95.0479 22.018 93.8149 22.216 92.3569 22.216ZM118.37 22V19.165L118.1 18.544V13.468C118.1 12.568 117.821 11.866 117.263 11.362C116.723 10.858 115.886 10.606 114.752 10.606C113.978 10.606 113.213 10.732 112.457 10.984C111.719 11.218 111.089 11.542 110.567 11.956L109.055 9.013C109.847 8.455 110.801 8.023 111.917 7.717C113.033 7.411 114.167 7.258 115.319 7.258C117.533 7.258 119.252 7.78 120.476 8.824C121.7 9.868 122.312 11.497 122.312 13.711V22H118.37ZM113.942 22.216C112.808 22.216 111.836 22.027 111.026 21.649C110.216 21.253 109.595 20.722 109.163 20.056C108.731 19.39 108.515 18.643 108.515 17.815C108.515 16.951 108.722 16.195 109.136 15.547C109.568 14.899 110.243 14.395 111.161 14.035C112.079 13.657 113.276 13.468 114.752 13.468H118.613V15.925H115.211C114.221 15.925 113.537 16.087 113.159 16.411C112.799 16.735 112.619 17.14 112.619 17.626C112.619 18.166 112.826 18.598 113.24 18.922C113.672 19.228 114.257 19.381 114.995 19.381C115.697 19.381 116.327 19.219 116.885 18.895C117.443 18.553 117.848 18.058 118.1 17.41L118.748 19.354C118.442 20.29 117.884 21.001 117.074 21.487C116.264 21.973 115.22 22.216 113.942 22.216ZM134.953 7.258C136.105 7.258 137.131 7.492 138.031 7.96C138.949 8.41 139.669 9.112 140.191 10.066C140.713 11.002 140.974 12.208 140.974 13.684V22H136.762V14.332C136.762 13.162 136.501 12.298 135.979 11.74C135.475 11.182 134.755 10.903 133.819 10.903C133.153 10.903 132.55 11.047 132.01 11.335C131.488 11.605 131.074 12.028 130.768 12.604C130.48 13.18 130.336 13.918 130.336 14.818V22H126.124V7.474H130.147V11.497L129.391 10.282C129.913 9.31 130.66 8.563 131.632 8.041C132.604 7.519 133.711 7.258 134.953 7.258ZM151.135 22.216C149.767 22.216 148.534 21.91 147.436 21.298C146.338 20.668 145.465 19.795 144.817 18.679C144.187 17.563 143.872 16.249 143.872 14.737C143.872 13.207 144.187 11.884 144.817 10.768C145.465 9.652 146.338 8.788 147.436 8.176C148.534 7.564 149.767 7.258 151.135 7.258C152.359 7.258 153.43 7.528 154.348 8.068C155.266 8.608 155.977 9.427 156.481 10.525C156.985 11.623 157.237 13.027 157.237 14.737C157.237 16.429 156.994 17.833 156.508 18.949C156.022 20.047 155.32 20.866 154.402 21.406C153.502 21.946 152.413 22.216 151.135 22.216ZM151.864 18.76C152.548 18.76 153.169 18.598 153.727 18.274C154.285 17.95 154.726 17.491 155.05 16.897C155.392 16.285 155.563 15.565 155.563 14.737C155.563 13.891 155.392 13.171 155.05 12.577C154.726 11.983 154.285 11.524 153.727 11.2C153.169 10.876 152.548 10.714 151.864 10.714C151.162 10.714 150.532 10.876 149.974 11.2C149.416 11.524 148.966 11.983 148.624 12.577C148.3 13.171 148.138 13.891 148.138 14.737C148.138 15.565 148.3 16.285 148.624 16.897C148.966 17.491 149.416 17.95 149.974 18.274C150.532 18.598 151.162 18.76 151.864 18.76ZM155.671 22V19.03L155.752 14.71L155.482 10.417V1.966H159.694V22H155.671ZM171.535 22V3.1H175.153L183.199 16.438H181.282L189.193 3.1H192.784L192.838 22H188.734L188.707 9.391H189.463L183.145 20.002H181.174L174.721 9.391H175.639V22H171.535ZM204.235 22.216C202.579 22.216 201.121 21.892 199.861 21.244C198.619 20.596 197.656 19.714 196.972 18.598C196.288 17.464 195.946 16.177 195.946 14.737C195.946 13.279 196.279 11.992 196.945 10.876C197.629 9.742 198.556 8.86 199.726 8.23C200.896 7.582 202.219 7.258 203.695 7.258C205.117 7.258 206.395 7.564 207.529 8.176C208.681 8.77 209.59 9.634 210.256 10.768C210.922 11.884 211.255 13.225 211.255 14.791C211.255 14.953 211.246 15.142 211.228 15.358C211.21 15.556 211.192 15.745 211.174 15.925H199.375V13.468H208.96L207.34 14.197C207.34 13.441 207.187 12.784 206.881 12.226C206.575 11.668 206.152 11.236 205.612 10.93C205.072 10.606 204.442 10.444 203.722 10.444C203.002 10.444 202.363 10.606 201.805 10.93C201.265 11.236 200.842 11.677 200.536 12.253C200.23 12.811 200.077 13.477 200.077 14.251V14.899C200.077 15.691 200.248 16.393 200.59 17.005C200.95 17.599 201.445 18.058 202.075 18.382C202.723 18.688 203.479 18.841 204.343 18.841C205.117 18.841 205.792 18.724 206.368 18.49C206.962 18.256 207.502 17.905 207.988 17.437L210.229 19.867C209.563 20.623 208.726 21.208 207.718 21.622C206.71 22.018 205.549 22.216 204.235 22.216ZM222.573 22V19.165L222.303 18.544V13.468C222.303 12.568 222.024 11.866 221.466 11.362C220.926 10.858 220.089 10.606 218.955 10.606C218.181 10.606 217.416 10.732 216.66 10.984C215.922 11.218 215.292 11.542 214.77 11.956L213.258 9.013C214.05 8.455 215.004 8.023 216.12 7.717C217.236 7.411 218.37 7.258 219.522 7.258C221.736 7.258 223.455 7.78 224.679 8.824C225.903 9.868 226.515 11.497 226.515 13.711V22H222.573ZM218.145 22.216C217.011 22.216 216.039 22.027 215.229 21.649C214.419 21.253 213.798 20.722 213.366 20.056C212.934 19.39 212.718 18.643 212.718 17.815C212.718 16.951 212.925 16.195 213.339 15.547C213.771 14.899 214.446 14.395 215.364 14.035C216.282 13.657 217.479 13.468 218.955 13.468H222.816V15.925H219.414C218.424 15.925 217.74 16.087 217.362 16.411C217.002 16.735 216.822 17.14 216.822 17.626C216.822 18.166 217.029 18.598 217.443 18.922C217.875 19.228 218.46 19.381 219.198 19.381C219.9 19.381 220.53 19.219 221.088 18.895C221.646 18.553 222.051 18.058 222.303 17.41L222.951 19.354C222.645 20.29 222.087 21.001 221.277 21.487C220.467 21.973 219.423 22.216 218.145 22.216ZM230.327 22V1.966H234.539V22H230.327ZM246.392 22V3.1H254.573C256.265 3.1 257.723 3.379 258.947 3.937C260.171 4.477 261.116 5.26 261.782 6.286C262.448 7.312 262.781 8.536 262.781 9.958C262.781 11.362 262.448 12.577 261.782 13.603C261.116 14.629 260.171 15.421 258.947 15.979C257.723 16.519 256.265 16.789 254.573 16.789H248.822L250.766 14.818V22H246.392ZM250.766 15.304L248.822 13.225H254.33C255.68 13.225 256.688 12.937 257.354 12.361C258.02 11.785 258.353 10.984 258.353 9.958C258.353 8.914 258.02 8.104 257.354 7.528C256.688 6.952 255.68 6.664 254.33 6.664H248.822L250.766 4.585V15.304ZM265.87 22V1.966H270.082V22H265.87ZM282.901 22V19.165L282.631 18.544V13.468C282.631 12.568 282.352 11.866 281.794 11.362C281.254 10.858 280.417 10.606 279.283 10.606C278.509 10.606 277.744 10.732 276.988 10.984C276.25 11.218 275.62 11.542 275.098 11.956L273.586 9.013C274.378 8.455 275.332 8.023 276.448 7.717C277.564 7.411 278.698 7.258 279.85 7.258C282.064 7.258 283.783 7.78 285.007 8.824C286.231 9.868 286.843 11.497 286.843 13.711V22H282.901ZM278.473 22.216C277.339 22.216 276.367 22.027 275.557 21.649C274.747 21.253 274.126 20.722 273.694 20.056C273.262 19.39 273.046 18.643 273.046 17.815C273.046 16.951 273.253 16.195 273.667 15.547C274.099 14.899 274.774 14.395 275.692 14.035C276.61 13.657 277.807 13.468 279.283 13.468H283.144V15.925H279.742C278.752 15.925 278.068 16.087 277.69 16.411C277.33 16.735 277.15 17.14 277.15 17.626C277.15 18.166 277.357 18.598 277.771 18.922C278.203 19.228 278.788 19.381 279.526 19.381C280.228 19.381 280.858 19.219 281.416 18.895C281.974 18.553 282.379 18.058 282.631 17.41L283.279 19.354C282.973 20.29 282.415 21.001 281.605 21.487C280.795 21.973 279.751 22.216 278.473 22.216ZM299.484 7.258C300.636 7.258 301.662 7.492 302.562 7.96C303.48 8.41 304.2 9.112 304.722 10.066C305.244 11.002 305.505 12.208 305.505 13.684V22H301.293V14.332C301.293 13.162 301.032 12.298 300.51 11.74C300.006 11.182 299.286 10.903 298.35 10.903C297.684 10.903 297.081 11.047 296.541 11.335C296.019 11.605 295.605 12.028 295.299 12.604C295.011 13.18 294.867 13.918 294.867 14.818V22H290.655V7.474H294.678V11.497L293.922 10.282C294.444 9.31 295.191 8.563 296.163 8.041C297.135 7.519 298.242 7.258 299.484 7.258ZM314.21 22.216C312.968 22.216 311.771 22.072 310.619 21.784C309.485 21.478 308.585 21.1 307.919 20.65L309.323 17.626C309.989 18.04 310.772 18.382 311.672 18.652C312.59 18.904 313.49 19.03 314.372 19.03C315.344 19.03 316.028 18.913 316.424 18.679C316.838 18.445 317.045 18.121 317.045 17.707C317.045 17.365 316.883 17.113 316.559 16.951C316.253 16.771 315.839 16.636 315.317 16.546C314.795 16.456 314.219 16.366 313.589 16.276C312.977 16.186 312.356 16.069 311.726 15.925C311.096 15.763 310.52 15.529 309.998 15.223C309.476 14.917 309.053 14.503 308.729 13.981C308.423 13.459 308.27 12.784 308.27 11.956C308.27 11.038 308.531 10.228 309.053 9.526C309.593 8.824 310.367 8.275 311.375 7.879C312.383 7.465 313.589 7.258 314.993 7.258C315.983 7.258 316.991 7.366 318.017 7.582C319.043 7.798 319.898 8.113 320.582 8.527L319.178 11.524C318.476 11.11 317.765 10.831 317.045 10.687C316.343 10.525 315.659 10.444 314.993 10.444C314.057 10.444 313.373 10.57 312.941 10.822C312.509 11.074 312.293 11.398 312.293 11.794C312.293 12.154 312.446 12.424 312.752 12.604C313.076 12.784 313.499 12.928 314.021 13.036C314.543 13.144 315.11 13.243 315.722 13.333C316.352 13.405 316.982 13.522 317.612 13.684C318.242 13.846 318.809 14.08 319.313 14.386C319.835 14.674 320.258 15.079 320.582 15.601C320.906 16.105 321.068 16.771 321.068 17.599C321.068 18.499 320.798 19.3 320.258 20.002C319.718 20.686 318.935 21.226 317.909 21.622C316.901 22.018 315.668 22.216 314.21 22.216Z" fill="white"/>
</svg>
