<svg width="328" height="45" viewBox="0 0 328 45" fill="none" xmlns="http://www.w3.org/2000/svg">
<path d="M2.85559 33.9999C2.66892 33.9999 2.51026 33.9346 2.37959 33.8039C2.24892 33.6732 2.18359 33.5146 2.18359 33.3279V15.0999C2.18359 14.8946 2.23959 14.7266 2.35159 14.5959C2.48226 14.4652 2.65026 14.3999 2.85559 14.3999H15.0076C15.2129 14.3999 15.3809 14.4652 15.5116 14.5959C15.6423 14.7266 15.7076 14.8946 15.7076 15.0999V17.0599C15.7076 17.2652 15.6423 17.4332 15.5116 17.5639C15.3809 17.6759 15.2129 17.7319 15.0076 17.7319H6.01959V23.0519H14.4476C14.6529 23.0519 14.8209 23.1172 14.9516 23.2479C15.0823 23.3786 15.1476 23.5466 15.1476 23.7519V25.7119C15.1476 25.9172 15.0823 26.0852 14.9516 26.2159C14.8209 26.3279 14.6529 26.3839 14.4476 26.3839H6.01959V33.3279C6.01959 33.5332 5.95426 33.7012 5.82359 33.8319C5.69292 33.9439 5.52492 33.9999 5.31959 33.9999H2.85559ZM18.749 17.0319C18.5623 17.0319 18.4037 16.9666 18.273 16.8359C18.1423 16.7052 18.077 16.5466 18.077 16.3599V14.3439C18.077 14.1572 18.1423 13.9986 18.273 13.8679C18.4037 13.7372 18.5623 13.6719 18.749 13.6719H21.297C21.4837 13.6719 21.6423 13.7372 21.773 13.8679C21.9223 13.9986 21.997 14.1572 21.997 14.3439V16.3599C21.997 16.5466 21.9317 16.7052 21.801 16.8359C21.6703 16.9666 21.5023 17.0319 21.297 17.0319H18.749ZM18.861 33.9999C18.6743 33.9999 18.5157 33.9346 18.385 33.8039C18.2543 33.6732 18.189 33.5146 18.189 33.3279V20.1119C18.189 19.9252 18.2543 19.7666 18.385 19.6359C18.5157 19.5052 18.6743 19.4399 18.861 19.4399H21.185C21.3903 19.4399 21.549 19.5052 21.661 19.6359C21.7917 19.7479 21.857 19.9066 21.857 20.1119V33.3279C21.857 33.5146 21.7917 33.6732 21.661 33.8039C21.549 33.9346 21.3903 33.9999 21.185 33.9999H18.861ZM31.6768 33.9999C29.9782 33.9999 28.6995 33.5612 27.8408 32.6839C27.0008 31.7879 26.5808 30.4812 26.5808 28.7639V22.4079H24.3688C24.1822 22.4079 24.0235 22.3426 23.8928 22.2119C23.7622 22.0626 23.6968 21.8946 23.6968 21.7079V20.1119C23.6968 19.9252 23.7622 19.7666 23.8928 19.6359C24.0235 19.5052 24.1822 19.4399 24.3688 19.4399H26.5808V14.7919C26.5808 14.5866 26.6462 14.4279 26.7768 14.3159C26.9075 14.1852 27.0662 14.1199 27.2528 14.1199H29.5208C29.7262 14.1199 29.8848 14.1852 29.9968 14.3159C30.1275 14.4279 30.1928 14.5866 30.1928 14.7919V19.4399H33.6928C33.8982 19.4399 34.0568 19.5052 34.1688 19.6359C34.2995 19.7479 34.3648 19.9066 34.3648 20.1119V21.7079C34.3648 21.9132 34.2995 22.0812 34.1688 22.2119C34.0382 22.3426 33.8795 22.4079 33.6928 22.4079H30.1928V28.4839C30.1928 29.2866 30.3328 29.8932 30.6128 30.3039C30.8928 30.7146 31.3595 30.9199 32.0128 30.9199H33.9448C34.1315 30.9199 34.2902 30.9852 34.4208 31.1159C34.5515 31.2466 34.6168 31.4052 34.6168 31.5919V33.3279C34.6168 33.5146 34.5515 33.6732 34.4208 33.8039C34.3088 33.9346 34.1502 33.9999 33.9448 33.9999H31.6768ZM37.2977 33.9999C37.1111 33.9999 36.9524 33.9346 36.8217 33.8039C36.6911 33.6732 36.6257 33.5146 36.6257 33.3279V20.1119C36.6257 19.9252 36.6911 19.7666 36.8217 19.6359C36.9524 19.5052 37.1111 19.4399 37.2977 19.4399H39.5937C39.7804 19.4399 39.9391 19.5052 40.0697 19.6359C40.2004 19.7666 40.2657 19.9252 40.2657 20.1119V21.2599C41.3671 19.8599 42.9257 19.1599 44.9417 19.1599C46.6591 19.1599 48.0217 19.7292 49.0297 20.8679C50.0377 21.9879 50.5417 23.5186 50.5417 25.4599V33.3279C50.5417 33.5146 50.4764 33.6732 50.3457 33.8039C50.2337 33.9346 50.0751 33.9999 49.8697 33.9999H47.4057C47.2191 33.9999 47.0604 33.9346 46.9297 33.8039C46.7991 33.6732 46.7337 33.5146 46.7337 33.3279V25.6279C46.7337 24.5266 46.4631 23.6772 45.9217 23.0799C45.3991 22.4639 44.6337 22.1559 43.6257 22.1559C42.6364 22.1559 41.8524 22.4639 41.2737 23.0799C40.7137 23.6959 40.4337 24.5452 40.4337 25.6279V33.3279C40.4337 33.5146 40.3684 33.6732 40.2377 33.8039C40.1257 33.9346 39.9671 33.9999 39.7617 33.9999H37.2977ZM59.8954 34.2799C57.8234 34.2799 56.1714 33.6826 54.9394 32.4879C53.726 31.2746 53.082 29.5759 53.0074 27.3919L52.9794 26.6919L53.0074 25.9919C53.1007 23.8639 53.754 22.1932 54.9674 20.9799C56.1994 19.7666 57.842 19.1599 59.8954 19.1599C62.098 19.1599 63.7967 19.8319 64.9914 21.1759C66.2047 22.5199 66.8114 24.3119 66.8114 26.5519V27.1399C66.8114 27.3266 66.746 27.4852 66.6154 27.6159C66.4847 27.7466 66.3167 27.8119 66.1114 27.8119H56.8154V28.0359C56.8527 29.0626 57.1327 29.9306 57.6554 30.6399C58.1967 31.3306 58.934 31.6759 59.8674 31.6759C60.9687 31.6759 61.8554 31.2466 62.5274 30.3879C62.6954 30.1826 62.826 30.0519 62.9194 29.9959C63.0314 29.9399 63.19 29.9119 63.3954 29.9119H65.8034C65.9714 29.9119 66.1114 29.9679 66.2234 30.0799C66.354 30.1732 66.4194 30.2946 66.4194 30.4439C66.4194 30.8919 66.1487 31.4239 65.6074 32.0399C65.0847 32.6372 64.3287 33.1599 63.3394 33.6079C62.35 34.0559 61.202 34.2799 59.8954 34.2799ZM63.0034 25.4599V25.3759C63.0034 24.2746 62.7234 23.3879 62.1634 22.7159C61.622 22.0439 60.866 21.7079 59.8954 21.7079C58.9247 21.7079 58.1687 22.0439 57.6274 22.7159C57.086 23.3879 56.8154 24.2746 56.8154 25.3759V25.4599H63.0034ZM74.8245 34.2799C73.4245 34.2799 72.2485 34.0746 71.2965 33.6639C70.3445 33.2346 69.6352 32.7399 69.1685 32.1799C68.7205 31.6012 68.4965 31.1066 68.4965 30.6959C68.4965 30.5092 68.5619 30.3599 68.6925 30.2479C68.8232 30.1359 68.9725 30.0799 69.1405 30.0799H71.3525C71.5205 30.0799 71.6605 30.1452 71.7725 30.2759C71.8472 30.3319 72.0432 30.4999 72.3605 30.7799C72.6779 31.0786 73.0512 31.3119 73.4805 31.4799C73.9099 31.6479 74.3859 31.7319 74.9085 31.7319C75.6552 31.7319 76.2712 31.5826 76.7565 31.2839C77.2419 30.9852 77.4845 30.5746 77.4845 30.0519C77.4845 29.6599 77.3725 29.3426 77.1485 29.0999C76.9432 28.8572 76.5605 28.6426 76.0005 28.4559C75.4405 28.2506 74.6099 28.0359 73.5085 27.8119C71.9219 27.4759 70.7459 26.9626 69.9805 26.2719C69.2339 25.5812 68.8605 24.6666 68.8605 23.5279C68.8605 22.7812 69.0845 22.0812 69.5325 21.4279C69.9805 20.7559 70.6432 20.2146 71.5205 19.8039C72.4165 19.3746 73.4805 19.1599 74.7125 19.1599C75.9632 19.1599 77.0459 19.3652 77.9605 19.7759C78.8752 20.1679 79.5659 20.6439 80.0325 21.2039C80.5179 21.7452 80.7605 22.2306 80.7605 22.6599C80.7605 22.8279 80.6952 22.9772 80.5645 23.1079C80.4525 23.2199 80.3125 23.2759 80.1445 23.2759H78.0725C77.9232 23.2759 77.7645 23.2106 77.5965 23.0799C77.4659 22.9866 77.2605 22.8092 76.9805 22.5479C76.7005 22.2866 76.3739 22.0812 76.0005 21.9319C75.6272 21.7826 75.1885 21.7079 74.6845 21.7079C73.9939 21.7079 73.4525 21.8572 73.0605 22.1559C72.6872 22.4546 72.5005 22.8466 72.5005 23.3319C72.5005 23.6866 72.5939 23.9759 72.7805 24.1999C72.9672 24.4239 73.3312 24.6386 73.8725 24.8439C74.4139 25.0492 75.2259 25.2546 76.3085 25.4599C78.1005 25.8146 79.3792 26.3652 80.1445 27.1119C80.9285 27.8586 81.3205 28.7732 81.3205 29.8559C81.3205 31.1626 80.7512 32.2266 79.6125 33.0479C78.4739 33.8692 76.8779 34.2799 74.8245 34.2799ZM89.2519 34.2799C87.8519 34.2799 86.6759 34.0746 85.7239 33.6639C84.7719 33.2346 84.0625 32.7399 83.5959 32.1799C83.1479 31.6012 82.9239 31.1066 82.9239 30.6959C82.9239 30.5092 82.9892 30.3599 83.1199 30.2479C83.2505 30.1359 83.3999 30.0799 83.5679 30.0799H85.7799C85.9479 30.0799 86.0879 30.1452 86.1999 30.2759C86.2745 30.3319 86.4705 30.4999 86.7879 30.7799C87.1052 31.0786 87.4785 31.3119 87.9079 31.4799C88.3372 31.6479 88.8132 31.7319 89.3359 31.7319C90.0825 31.7319 90.6986 31.5826 91.1839 31.2839C91.6692 30.9852 91.9119 30.5746 91.9119 30.0519C91.9119 29.6599 91.7999 29.3426 91.5759 29.0999C91.3705 28.8572 90.9879 28.6426 90.4279 28.4559C89.8679 28.2506 89.0372 28.0359 87.9359 27.8119C86.3492 27.4759 85.1732 26.9626 84.4079 26.2719C83.6612 25.5812 83.2879 24.6666 83.2879 23.5279C83.2879 22.7812 83.5119 22.0812 83.9599 21.4279C84.4079 20.7559 85.0705 20.2146 85.9479 19.8039C86.8439 19.3746 87.9079 19.1599 89.1399 19.1599C90.3905 19.1599 91.4732 19.3652 92.3879 19.7759C93.3026 20.1679 93.9932 20.6439 94.4599 21.2039C94.9452 21.7452 95.1879 22.2306 95.1879 22.6599C95.1879 22.8279 95.1226 22.9772 94.9919 23.1079C94.8799 23.2199 94.7399 23.2759 94.5719 23.2759H92.4999C92.3505 23.2759 92.1919 23.2106 92.0239 23.0799C91.8932 22.9866 91.6879 22.8092 91.4079 22.5479C91.1279 22.2866 90.8012 22.0812 90.4279 21.9319C90.0545 21.7826 89.6159 21.7079 89.1119 21.7079C88.4212 21.7079 87.8799 21.8572 87.4879 22.1559C87.1145 22.4546 86.9279 22.8466 86.9279 23.3319C86.9279 23.6866 87.0212 23.9759 87.2079 24.1999C87.3945 24.4239 87.7585 24.6386 88.2999 24.8439C88.8412 25.0492 89.6532 25.2546 90.7359 25.4599C92.5279 25.8146 93.8066 26.3652 94.5719 27.1119C95.3559 27.8586 95.7479 28.7732 95.7479 29.8559C95.7479 31.1626 95.1786 32.2266 94.0399 33.0479C92.9012 33.8692 91.3052 34.2799 89.2519 34.2799ZM161.793 33.9999C161.588 33.9999 161.42 33.9439 161.289 33.8319C161.159 33.7012 161.093 33.5332 161.093 33.3279V15.0999C161.093 14.8946 161.159 14.7266 161.289 14.5959C161.42 14.4652 161.588 14.3999 161.793 14.3999H164.005C164.397 14.3999 164.677 14.5772 164.845 14.9319L170.249 25.0119L175.709 14.9319C175.896 14.5772 176.176 14.3999 176.549 14.3999H178.733C178.939 14.3999 179.107 14.4652 179.237 14.5959C179.368 14.7266 179.433 14.8946 179.433 15.0999V33.3279C179.433 33.5332 179.368 33.7012 179.237 33.8319C179.107 33.9439 178.939 33.9999 178.733 33.9999H176.381C176.195 33.9999 176.036 33.9346 175.905 33.8039C175.775 33.6732 175.709 33.5146 175.709 33.3279V21.2039L171.789 28.6799C171.547 29.0906 171.229 29.2959 170.837 29.2959H169.689C169.297 29.2959 168.98 29.0906 168.737 28.6799L164.817 21.2039V33.3279C164.817 33.5146 164.752 33.6732 164.621 33.8039C164.509 33.9346 164.351 33.9999 164.145 33.9999H161.793ZM189.25 34.2799C187.178 34.2799 185.526 33.6826 184.294 32.4879C183.08 31.2746 182.436 29.5759 182.362 27.3919L182.334 26.6919L182.362 25.9919C182.455 23.8639 183.108 22.1932 184.322 20.9799C185.554 19.7666 187.196 19.1599 189.25 19.1599C191.452 19.1599 193.151 19.8319 194.346 21.1759C195.559 22.5199 196.166 24.3119 196.166 26.5519V27.1399C196.166 27.3266 196.1 27.4852 195.97 27.6159C195.839 27.7466 195.671 27.8119 195.466 27.8119H186.17V28.0359C186.207 29.0626 186.487 29.9306 187.01 30.6399C187.551 31.3306 188.288 31.6759 189.222 31.6759C190.323 31.6759 191.21 31.2466 191.882 30.3879C192.05 30.1826 192.18 30.0519 192.274 29.9959C192.386 29.9399 192.544 29.9119 192.75 29.9119H195.158C195.326 29.9119 195.466 29.9679 195.578 30.0799C195.708 30.1732 195.774 30.2946 195.774 30.4439C195.774 30.8919 195.503 31.4239 194.962 32.0399C194.439 32.6372 193.683 33.1599 192.694 33.6079C191.704 34.0559 190.556 34.2799 189.25 34.2799ZM192.358 25.4599V25.3759C192.358 24.2746 192.078 23.3879 191.518 22.7159C190.976 22.0439 190.22 21.7079 189.25 21.7079C188.279 21.7079 187.523 22.0439 186.982 22.7159C186.44 23.3879 186.17 24.2746 186.17 25.3759V25.4599H192.358ZM202.891 34.2799C201.939 34.2799 201.062 34.0932 200.259 33.7199C199.475 33.3279 198.85 32.8052 198.383 32.1519C197.935 31.4986 197.711 30.7799 197.711 29.9959C197.711 28.7266 198.224 27.6999 199.251 26.9159C200.278 26.1319 201.687 25.5999 203.479 25.3199L207.315 24.7599V24.1719C207.315 23.3506 207.11 22.7346 206.699 22.3239C206.288 21.9132 205.626 21.7079 204.711 21.7079C204.095 21.7079 203.591 21.8292 203.199 22.0719C202.826 22.2959 202.527 22.5199 202.303 22.7439C202.079 22.9866 201.93 23.1452 201.855 23.2199C201.78 23.4439 201.64 23.5559 201.435 23.5559H199.279C199.111 23.5559 198.962 23.4999 198.831 23.3879C198.719 23.2759 198.663 23.1266 198.663 22.9399C198.682 22.4732 198.906 21.9412 199.335 21.3439C199.783 20.7466 200.464 20.2332 201.379 19.8039C202.294 19.3746 203.414 19.1599 204.739 19.1599C206.942 19.1599 208.547 19.6546 209.555 20.6439C210.563 21.6332 211.067 22.9306 211.067 24.5359V33.3279C211.067 33.5146 211.002 33.6732 210.871 33.8039C210.759 33.9346 210.6 33.9999 210.395 33.9999H208.127C207.94 33.9999 207.782 33.9346 207.651 33.8039C207.52 33.6732 207.455 33.5146 207.455 33.3279V32.2359C207.044 32.8332 206.456 33.3279 205.691 33.7199C204.944 34.0932 204.011 34.2799 202.891 34.2799ZM203.843 31.6199C204.87 31.6199 205.71 31.2839 206.363 30.6119C207.016 29.9399 207.343 28.9599 207.343 27.6719V27.0839L204.543 27.5319C203.46 27.6999 202.639 27.9706 202.079 28.3439C201.538 28.7172 201.267 29.1746 201.267 29.7159C201.267 30.3132 201.519 30.7799 202.023 31.1159C202.527 31.4519 203.134 31.6199 203.843 31.6199ZM214.884 33.9999C214.697 33.9999 214.539 33.9346 214.408 33.8039C214.277 33.6732 214.212 33.5146 214.212 33.3279V14.7919C214.212 14.5866 214.277 14.4279 214.408 14.3159C214.539 14.1852 214.697 14.1199 214.884 14.1199H217.208C217.413 14.1199 217.572 14.1852 217.684 14.3159C217.815 14.4279 217.88 14.5866 217.88 14.7919V33.3279C217.88 33.5146 217.815 33.6732 217.684 33.8039C217.572 33.9346 217.413 33.9999 217.208 33.9999H214.884ZM228.051 33.9999C227.864 33.9999 227.705 33.9346 227.575 33.8039C227.444 33.6732 227.379 33.5146 227.379 33.3279V15.0999C227.379 14.8946 227.435 14.7266 227.547 14.5959C227.677 14.4652 227.845 14.3999 228.051 14.3999H235.555C237.795 14.3999 239.559 14.9319 240.847 15.9959C242.135 17.0412 242.779 18.5812 242.779 20.6159C242.779 22.6506 242.135 24.1906 240.847 25.2359C239.577 26.2626 237.813 26.7759 235.555 26.7759H231.383V33.3279C231.383 33.5146 231.317 33.6732 231.187 33.8039C231.075 33.9346 230.916 33.9999 230.711 33.9999H228.051ZM235.415 23.6679C236.497 23.6679 237.328 23.4159 237.907 22.9119C238.485 22.3892 238.775 21.6239 238.775 20.6159C238.775 19.6452 238.495 18.8892 237.935 18.3479C237.375 17.7879 236.535 17.5079 235.415 17.5079H231.327V23.6679H235.415ZM245.725 33.9999C245.538 33.9999 245.379 33.9346 245.249 33.8039C245.118 33.6732 245.053 33.5146 245.053 33.3279V14.7919C245.053 14.5866 245.118 14.4279 245.249 14.3159C245.379 14.1852 245.538 14.1199 245.725 14.1199H248.049C248.254 14.1199 248.413 14.1852 248.525 14.3159C248.655 14.4279 248.721 14.5866 248.721 14.7919V33.3279C248.721 33.5146 248.655 33.6732 248.525 33.8039C248.413 33.9346 248.254 33.9999 248.049 33.9999H245.725ZM256.188 34.2799C255.236 34.2799 254.358 34.0932 253.556 33.7199C252.772 33.3279 252.146 32.8052 251.68 32.1519C251.232 31.4986 251.008 30.7799 251.008 29.9959C251.008 28.7266 251.521 27.6999 252.548 26.9159C253.574 26.1319 254.984 25.5999 256.776 25.3199L260.612 24.7599V24.1719C260.612 23.3506 260.406 22.7346 259.996 22.3239C259.585 21.9132 258.922 21.7079 258.008 21.7079C257.392 21.7079 256.888 21.8292 256.496 22.0719C256.122 22.2959 255.824 22.5199 255.6 22.7439C255.376 22.9866 255.226 23.1452 255.152 23.2199C255.077 23.4439 254.937 23.5559 254.732 23.5559H252.576C252.408 23.5559 252.258 23.4999 252.128 23.3879C252.016 23.2759 251.96 23.1266 251.96 22.9399C251.978 22.4732 252.202 21.9412 252.632 21.3439C253.08 20.7466 253.761 20.2332 254.676 19.8039C255.59 19.3746 256.71 19.1599 258.036 19.1599C260.238 19.1599 261.844 19.6546 262.852 20.6439C263.86 21.6332 264.364 22.9306 264.364 24.5359V33.3279C264.364 33.5146 264.298 33.6732 264.168 33.8039C264.056 33.9346 263.897 33.9999 263.692 33.9999H261.424C261.237 33.9999 261.078 33.9346 260.948 33.8039C260.817 33.6732 260.752 33.5146 260.752 33.3279V32.2359C260.341 32.8332 259.753 33.3279 258.988 33.7199C258.241 34.0932 257.308 34.2799 256.188 34.2799ZM257.14 31.6199C258.166 31.6199 259.006 31.2839 259.66 30.6119C260.313 29.9399 260.64 28.9599 260.64 27.6719V27.0839L257.84 27.5319C256.757 27.6999 255.936 27.9706 255.376 28.3439C254.834 28.7172 254.564 29.1746 254.564 29.7159C254.564 30.3132 254.816 30.7799 255.32 31.1159C255.824 31.4519 256.43 31.6199 257.14 31.6199ZM268.153 33.9999C267.966 33.9999 267.807 33.9346 267.677 33.8039C267.546 33.6732 267.481 33.5146 267.481 33.3279V20.1119C267.481 19.9252 267.546 19.7666 267.677 19.6359C267.807 19.5052 267.966 19.4399 268.153 19.4399H270.449C270.635 19.4399 270.794 19.5052 270.925 19.6359C271.055 19.7666 271.121 19.9252 271.121 20.1119V21.2599C272.222 19.8599 273.781 19.1599 275.797 19.1599C277.514 19.1599 278.877 19.7292 279.885 20.8679C280.893 21.9879 281.397 23.5186 281.397 25.4599V33.3279C281.397 33.5146 281.331 33.6732 281.201 33.8039C281.089 33.9346 280.93 33.9999 280.725 33.9999H278.261C278.074 33.9999 277.915 33.9346 277.785 33.8039C277.654 33.6732 277.589 33.5146 277.589 33.3279V25.6279C277.589 24.5266 277.318 23.6772 276.777 23.0799C276.254 22.4639 275.489 22.1559 274.481 22.1559C273.491 22.1559 272.707 22.4639 272.129 23.0799C271.569 23.6959 271.289 24.5452 271.289 25.6279V33.3279C271.289 33.5146 271.223 33.6732 271.093 33.8039C270.981 33.9346 270.822 33.9999 270.617 33.9999H268.153ZM285.15 33.9999C284.964 33.9999 284.805 33.9346 284.674 33.8039C284.544 33.6732 284.478 33.5146 284.478 33.3279V20.1119C284.478 19.9252 284.544 19.7666 284.674 19.6359C284.805 19.5052 284.964 19.4399 285.15 19.4399H287.446C287.633 19.4399 287.792 19.5052 287.922 19.6359C288.053 19.7666 288.118 19.9252 288.118 20.1119V21.2599C289.22 19.8599 290.778 19.1599 292.794 19.1599C294.512 19.1599 295.874 19.7292 296.882 20.8679C297.89 21.9879 298.394 23.5186 298.394 25.4599V33.3279C298.394 33.5146 298.329 33.6732 298.198 33.8039C298.086 33.9346 297.928 33.9999 297.722 33.9999H295.258C295.072 33.9999 294.913 33.9346 294.782 33.8039C294.652 33.6732 294.586 33.5146 294.586 33.3279V25.6279C294.586 24.5266 294.316 23.6772 293.774 23.0799C293.252 22.4639 292.486 22.1559 291.478 22.1559C290.489 22.1559 289.705 22.4639 289.126 23.0799C288.566 23.6959 288.286 24.5452 288.286 25.6279V33.3279C288.286 33.5146 288.221 33.6732 288.09 33.8039C287.978 33.9346 287.82 33.9999 287.614 33.9999H285.15ZM307.748 34.2799C305.676 34.2799 304.024 33.6826 302.792 32.4879C301.579 31.2746 300.935 29.5759 300.86 27.3919L300.832 26.6919L300.86 25.9919C300.953 23.8639 301.607 22.1932 302.82 20.9799C304.052 19.7666 305.695 19.1599 307.748 19.1599C309.951 19.1599 311.649 19.8319 312.844 21.1759C314.057 22.5199 314.664 24.3119 314.664 26.5519V27.1399C314.664 27.3266 314.599 27.4852 314.468 27.6159C314.337 27.7466 314.169 27.8119 313.964 27.8119H304.668V28.0359C304.705 29.0626 304.985 29.9306 305.508 30.6399C306.049 31.3306 306.787 31.6759 307.72 31.6759C308.821 31.6759 309.708 31.2466 310.38 30.3879C310.548 30.1826 310.679 30.0519 310.772 29.9959C310.884 29.9399 311.043 29.9119 311.248 29.9119H313.656C313.824 29.9119 313.964 29.9679 314.076 30.0799C314.207 30.1732 314.272 30.2946 314.272 30.4439C314.272 30.8919 314.001 31.4239 313.46 32.0399C312.937 32.6372 312.181 33.1599 311.192 33.6079C310.203 34.0559 309.055 34.2799 307.748 34.2799ZM310.856 25.4599V25.3759C310.856 24.2746 310.576 23.3879 310.016 22.7159C309.475 22.0439 308.719 21.7079 307.748 21.7079C306.777 21.7079 306.021 22.0439 305.48 22.7159C304.939 23.3879 304.668 24.2746 304.668 25.3759V25.4599H310.856ZM317.833 33.9999C317.647 33.9999 317.488 33.9346 317.357 33.8039C317.227 33.6732 317.161 33.5146 317.161 33.3279V20.1399C317.161 19.9532 317.227 19.7946 317.357 19.6639C317.488 19.5146 317.647 19.4399 317.833 19.4399H320.101C320.307 19.4399 320.475 19.5052 320.605 19.6359C320.736 19.7666 320.801 19.9346 320.801 20.1399V21.2879C321.249 20.6906 321.809 20.2332 322.481 19.9159C323.172 19.5986 323.956 19.4399 324.833 19.4399H325.981C326.187 19.4399 326.345 19.5052 326.457 19.6359C326.588 19.7479 326.653 19.9066 326.653 20.1119V22.1279C326.653 22.3146 326.588 22.4732 326.457 22.6039C326.345 22.7346 326.187 22.7999 325.981 22.7999H323.797C322.92 22.7999 322.229 23.0519 321.725 23.5559C321.221 24.0599 320.969 24.7506 320.969 25.6279V33.3279C320.969 33.5146 320.904 33.6732 320.773 33.8039C320.643 33.9346 320.475 33.9999 320.269 33.9999H317.833Z" fill="white"/>
<path d="M108.259 34.2801C107.27 34.2801 106.364 34.0934 105.543 33.7201C104.74 33.3281 104.106 32.8054 103.639 32.1521C103.191 31.4801 102.967 30.7428 102.967 29.9401C102.967 28.6521 103.49 27.6161 104.535 26.8321C105.599 26.0481 107.055 25.5068 108.903 25.2081L112.403 24.6761V24.2841C112.403 23.5748 112.254 23.0521 111.955 22.7161C111.656 22.3801 111.152 22.2121 110.443 22.2121C110.014 22.2121 109.659 22.2868 109.379 22.4361C109.099 22.5854 108.81 22.7908 108.511 23.0521C108.25 23.2761 108.054 23.4254 107.923 23.5001C107.867 23.6494 107.764 23.7241 107.615 23.7241H104.563C104.376 23.7241 104.218 23.6681 104.087 23.5561C103.975 23.4254 103.928 23.2761 103.947 23.1081C103.966 22.6041 104.208 22.0441 104.675 21.4281C105.16 20.8121 105.888 20.2801 106.859 19.8321C107.848 19.3841 109.062 19.1601 110.499 19.1601C112.795 19.1601 114.494 19.6734 115.595 20.7001C116.696 21.7081 117.247 23.0708 117.247 24.7881V33.3001C117.247 33.4868 117.182 33.6548 117.051 33.8041C116.92 33.9348 116.752 34.0001 116.547 34.0001H113.299C113.112 34.0001 112.944 33.9348 112.795 33.8041C112.664 33.6548 112.599 33.4868 112.599 33.3001V32.3201C112.188 32.8988 111.61 33.3748 110.863 33.7481C110.135 34.1028 109.267 34.2801 108.259 34.2801ZM109.575 31.0881C110.434 31.0881 111.124 30.8081 111.647 30.2481C112.188 29.6881 112.459 28.8668 112.459 27.7841V27.3921L110.079 27.8121C108.399 28.1108 107.559 28.6988 107.559 29.5761C107.559 30.0428 107.755 30.4161 108.147 30.6961C108.539 30.9574 109.015 31.0881 109.575 31.0881ZM120.632 34.0001C120.426 34.0001 120.258 33.9348 120.128 33.8041C119.997 33.6734 119.932 33.5054 119.932 33.3001V20.1401C119.932 19.9348 119.997 19.7668 120.128 19.6361C120.258 19.5054 120.426 19.4401 120.632 19.4401H123.852C124.057 19.4401 124.225 19.5054 124.356 19.6361C124.505 19.7668 124.58 19.9348 124.58 20.1401V21.2041C125.084 20.5881 125.728 20.0934 126.512 19.7201C127.314 19.3468 128.22 19.1601 129.228 19.1601C130.87 19.1601 132.205 19.7201 133.232 20.8401C134.258 21.9414 134.772 23.4908 134.772 25.4881V33.3001C134.772 33.4868 134.706 33.6548 134.576 33.8041C134.445 33.9348 134.277 34.0001 134.072 34.0001H130.544C130.357 34.0001 130.189 33.9348 130.04 33.8041C129.909 33.6548 129.844 33.4868 129.844 33.3001V25.6561C129.844 24.7788 129.629 24.1068 129.2 23.6401C128.77 23.1548 128.154 22.9121 127.352 22.9121C126.568 22.9121 125.952 23.1548 125.504 23.6401C125.056 24.1068 124.832 24.7788 124.832 25.6561V33.3001C124.832 33.4868 124.766 33.6548 124.636 33.8041C124.505 33.9348 124.337 34.0001 124.132 34.0001H120.632ZM142.881 34.2801C141.052 34.2801 139.624 33.7108 138.597 32.5721C137.589 31.4148 137.038 29.7908 136.945 27.7001L136.917 26.7201L136.945 25.7121C137.02 23.6961 137.57 22.1001 138.597 20.9241C139.642 19.7481 141.07 19.1601 142.881 19.1601C144.58 19.1601 145.952 19.7108 146.997 20.8121V14.8201C146.997 14.6148 147.062 14.4468 147.193 14.3161C147.324 14.1854 147.492 14.1201 147.697 14.1201H151.113C151.318 14.1201 151.486 14.1854 151.617 14.3161C151.748 14.4468 151.813 14.6148 151.813 14.8201V33.3001C151.813 33.4868 151.748 33.6548 151.617 33.8041C151.486 33.9348 151.318 34.0001 151.113 34.0001H147.949C147.762 34.0001 147.594 33.9348 147.445 33.8041C147.314 33.6548 147.249 33.4868 147.249 33.3001V32.4041C146.222 33.6548 144.766 34.2801 142.881 34.2801ZM144.421 30.5281C145.261 30.5281 145.886 30.2668 146.297 29.7441C146.708 29.2028 146.941 28.5121 146.997 27.6721C147.016 27.4294 147.025 27.0748 147.025 26.6081C147.025 26.1601 147.016 25.8148 146.997 25.5721C146.96 24.8068 146.726 24.1721 146.297 23.6681C145.868 23.1641 145.242 22.9121 144.421 22.9121C143.544 22.9121 142.909 23.1734 142.517 23.6961C142.144 24.2188 141.929 24.9374 141.873 25.8521C141.854 26.0388 141.845 26.3281 141.845 26.7201C141.845 27.1121 141.854 27.4014 141.873 27.5881C141.929 28.5028 142.144 29.2214 142.517 29.7441C142.909 30.2668 143.544 30.5281 144.421 30.5281Z" fill="white"/>
</svg>
